# xmcd
# 
# Track frame offsets:
#     182
#     17740
#     41855
#     60607
#     77012
#     94787
#     106012
#     132047
#     155055
#     173340
#     182807
# 
# Disc length: 2777
# 
# Revision: 6
# Processed by: cddbd v1.5.2PL0 Copyright (c) Steve Scherf et al.
# Submitted via: fre:ac v1.1beta1pre5
# 
DISCID=810ad70b
DTITLE=Björk - Post
DYEAR=2000
DGENRE=Rock
TTITLE0=Army of Me
TTITLE1=Hyperballad
TTITLE2=The Modern Things
TTITLE3=It's Oh so Quiet
TTITLE4=Enjoy
TTITLE5=You've Been Flirting Again
TTITLE6=Isobel
TTITLE7=Possibly Maybe
TTITLE8=I Miss You
TTITLE9=Cover Me
TTITLE10=Headphones
EXTD=
EXTT0=
EXTT1=
EXTT2=
EXTT3=
EXTT4=
EXTT5=
EXTT6=
EXTT7=
EXTT8=
EXTT9=
EXTT10=
PLAYORDER=
